<svg xmlns="http://www.w3.org/2000/svg" xmlns:xlink="http://www.w3.org/1999/xlink" version="1.1" width="512px" height="512px" style="shape-rendering:geometricPrecision; text-rendering:geometricPrecision; image-rendering:optimizeQuality; fill-rule:evenodd; clip-rule:evenodd">
<g><path style="opacity:0.955" fill="#FF0000" d="M 223.5,5.5 C 303.167,5.33334 382.834,5.5 462.5,6C 483.718,10.885 497.551,23.7183 504,44.5C 505.655,125.456 505.989,206.456 505,287.5C 499.5,310.333 485.333,324.5 462.5,330C 418.835,330.5 375.168,330.667 331.5,330.5C 331.951,374.524 331.451,418.524 330,462.5C 324.5,485.333 310.333,499.5 287.5,505C 207.833,505.667 128.167,505.667 48.5,505C 25.6667,499.5 11.5,485.333 6,462.5C 5.33333,382.833 5.33333,303.167 6,223.5C 11.5,200.667 25.6667,186.5 48.5,181C 92.1654,180.5 135.832,180.333 179.5,180.5C 179.333,139.499 179.5,98.4986 180,57.5C 182.547,30.029 197.047,12.6957 223.5,5.5 Z M 229.5,21.5 C 305.167,21.3333 380.834,21.5 456.5,22C 474.667,25.5 485.5,36.3333 489,54.5C 489.667,130.167 489.667,205.833 489,281.5C 485.5,299.667 474.667,310.5 456.5,314C 414.835,314.5 373.168,314.667 331.5,314.5C 331.927,284.14 331.427,253.806 330,223.5C 324.5,200.667 310.333,186.5 287.5,181C 257.168,180.5 226.835,180.333 196.5,180.5C 196.027,136.794 196.527,93.1275 198,49.5C 203.051,33.9445 213.551,24.6111 229.5,21.5 Z M 54.5,196.5 C 130.167,196.333 205.834,196.5 281.5,197C 299.667,200.5 310.5,211.333 314,229.5C 314.667,305.167 314.667,380.833 314,456.5C 310.527,474.64 299.694,485.473 281.5,489C 205.833,489.667 130.167,489.667 54.5,489C 36.3333,485.5 25.5,474.667 22,456.5C 21.3333,380.833 21.3333,305.167 22,229.5C 25.6802,211.321 36.5136,200.321 54.5,196.5 Z"/></g>
<g><path style="opacity:0.959" fill="#FF0000" d="M 259.5,67.5 C 280.519,66.2011 292.519,75.8678 295.5,96.5C 292.102,117.853 279.769,127.019 258.5,124C 243.002,118.163 236.169,106.996 238,90.5C 240.909,78.7602 248.076,71.0936 259.5,67.5 Z"/></g>
<g><path style="opacity:0.963" fill="#FF0000" d="M 335.5,139.5 C 351.423,137.21 362.923,143.21 370,157.5C 374.768,176.132 368.268,188.966 350.5,196C 329.108,198.597 317.108,189.264 314.5,168C 315.194,153.812 322.194,144.312 335.5,139.5 Z"/></g>
<g><path style="opacity:0.96" fill="#FF0000" d="M 418.5,210.5 C 441.682,213.538 451.182,226.538 447,249.5C 439.311,265.426 426.811,271.259 409.5,267C 393.33,258.841 387.83,246.008 393,228.5C 398.373,217.91 406.873,211.91 418.5,210.5 Z"/></g>
<g><path style="opacity:0.959" fill="#FF0000" d="M 84.5,242.5 C 105.519,241.201 117.519,250.868 120.5,271.5C 117.102,292.853 104.769,302.019 83.5,299C 68.0023,293.163 61.169,281.996 63,265.5C 65.9092,253.76 73.0759,246.094 84.5,242.5 Z"/></g>
<g><path style="opacity:0.958" fill="#FF0000" d="M 238.5,242.5 C 262.116,241.616 273.616,252.949 273,276.5C 269.168,291.161 259.668,299.161 244.5,300.5C 227.18,298.513 217.513,288.846 215.5,271.5C 216.969,256.718 224.636,247.051 238.5,242.5 Z"/></g>
<g><path style="opacity:0.963" fill="#FF0000" d="M 160.5,314.5 C 176.423,312.21 187.923,318.21 195,332.5C 199.768,351.132 193.268,363.966 175.5,371C 154.108,373.597 142.108,364.264 139.5,343C 140.194,328.812 147.194,319.312 160.5,314.5 Z"/></g>
<g><path style="opacity:0.959" fill="#FF0000" d="M 90.5,385.5 C 108.35,387.016 118.35,396.683 120.5,414.5C 117.033,437.128 104.033,446.295 81.5,442C 65.8807,434.593 60.0474,422.426 64,405.5C 68.7316,393.254 77.565,386.587 90.5,385.5 Z"/></g>
<g><path style="opacity:0.96" fill="#FF0000" d="M 243.5,385.5 C 266.682,388.538 276.182,401.538 272,424.5C 262.255,443.234 247.755,448.068 228.5,439C 214.424,426.624 212.257,412.457 222,396.5C 227.839,389.998 235.005,386.332 243.5,385.5 Z"/></g>
</svg>